HIERARCHY
ROOT pelvis
{
  OFFSET 0 100 0
  CHANNELS 6 Xposition Yposition Zposition Zrotation Xrotation Yrotation
  JOINT pelvis_right_femur
  {
    OFFSET -10.78128 -3.44521 -0.5502486
    CHANNELS 3 Zrotation Xrotation Yrotation
    JOINT right_femur_tibia
    {
      OFFSET -0.8047443 -44.0398 -0.1307829
      CHANNELS 3 Zrotation Xrotation Yrotation
      JOINT right_tibia_foot
      {
        OFFSET 3.006224 -47.83518 -5
        CHANNELS 3 Zrotation Xrotation Yrotation
        End Site
        {
          OFFSET 0 -5 15
        }
      }
    }
  }
  JOINT pelvis_left_femur
  {
    OFFSET 10.78128 -3.44521 -0.5502486
    CHANNELS 3 Zrotation Xrotation Yrotation
    JOINT left_femur_tibia
    {
      OFFSET 0.8047443 -44.0398 -0.1307829
      CHANNELS 3 Zrotation Xrotation Yrotation
      JOINT left_tibia_foot
      {
        OFFSET -4.370144 -48.10324 -4.275266
        CHANNELS 3 Zrotation Xrotation Yrotation
        End Site
        {
          OFFSET 0 -5 15
        }
      }
    }
  }
  JOINT pelvis_spine1
  {
    OFFSET 0 6.468898 -3.129235
    CHANNELS 3 Zrotation Xrotation Yrotation
    JOINT spine1
    {
      OFFSET 0 23.15396 4.99043
      CHANNELS 3 Zrotation Xrotation Yrotation
      JOINT spine2
      {
        OFFSET 0 20.79997 -5.064912
        CHANNELS 3 Zrotation Xrotation Yrotation
        JOINT neck
        {
          OFFSET 0 14.38658 9.616178
          CHANNELS 3 Zrotation Xrotation Yrotation
          End Site
          {
            OFFSET 0 20 0
          }
        }
      }
      JOINT right_manubrium
      {
        OFFSET -5.722621 16.35077 3.967754
        CHANNELS 3 Zrotation Xrotation Yrotation
        JOINT right_clavicle
        {
          OFFSET -13.16364 1.694482 -4.693211
          CHANNELS 3 Zrotation Xrotation Yrotation
          JOINT right_humerus
          {
            OFFSET -28.5034 -0.3100689 -2.792744
            CHANNELS 3 Zrotation Xrotation Yrotation
            JOINT right_radius
            {
              OFFSET -25.15693 0.02248979 -1.271978
              CHANNELS 3 Zrotation Xrotation Yrotation
              End Site
              {
                OFFSET -15 0 0
              }
            }
          }
        }
      }
      JOINT left_manubrium
      {
        OFFSET 5.722621 16.35077 3.967754
        CHANNELS 3 Zrotation Xrotation Yrotation
        JOINT left_clavicle
        {
          OFFSET 13.16364 1.694482 -4.693211
          CHANNELS 3 Zrotation Xrotation Yrotation
          JOINT left_humerus
          {
            OFFSET 29.39168 -1.063119 -2.237045
            CHANNELS 3 Zrotation Xrotation Yrotation
            JOINT left_radius
            {
              OFFSET 24.59957 -0.9528479 0.9047498
              CHANNELS 3 Zrotation Xrotation Yrotation
              End Site
              {
                OFFSET 15 -0 -0
              }
            }
          }
        }
      }
    }
  }
}
MOTION
Frames: 9
Frame Time: 0.0416666666667
0 103.5113 0 1.944841 -0.8665193 0.06699412 1.810961 -14.94369 10.4896 -0 41.71708 -0 -5.868916 -18.75934 -3.704941 -8.132971 8.865503 -23.43825 -0 3.074628 -0 15.95296 -12.87257 30.06284 -4.841255 -4.144166 5.282962 2.599495 10.05055 -7.615025 1.421756 22.27812 6.628617 2.578109 -24.23308 9.999588 6.593313 -20.14728 11.63564 85.35327 39.31992 -17.36354 -0 0 16.12951 -7.080706 8.624394 4.698423 5.135671 -19.01435 -1.305931 -90.59061 20.44012 19.08918 0 0 -14.59357 16.05464 14.22261 -4.347464
0.3711085 103.7982 1.404833 1.554407 -0.506402 0.099242 2.606798 -16.8123 10.1491 -0 40.29198 -0 -5.767323 -17.57093 -3.395534 -7.829071 9.196388 -22.94992 -0 3.937507 -0 15.26516 -13.44631 29.44349 -4.47243 -3.81467 5.146559 2.624273 10.02112 -7.614739 1.445406 22.06009 6.66279 2.693977 -24.41183 9.986764 6.563611 -19.997 11.59884 85.30446 39.14339 -17.3932 -0 0 16.1024 -7.015887 8.649915 4.528821 5.444634 -19.12817 -1.343217 -90.67615 20.30984 19.07658 0 0 -14.9351 16.1225 14.08398 -4.512607
0.7412361 104.0993 3.3478 0.9261246 -0.1597792 0.1920255 3.670175 -19.81247 8.907961 -0 37.9494 -0 -6.100114 -13.8086 -2.566583 -7.289497 9.526632 -21.59248 -0 5.699647 -0 13.78518 -14.39974 27.91692 -3.831976 -3.113825 4.781215 2.524399 10.18263 -7.528056 1.402804 21.73483 6.844103 3.095335 -24.53151 9.787583 6.415096 -19.69383 11.62075 85.46243 38.6226 -17.47056 -0 0 15.60502 -7.829638 8.779653 4.660431 6.007076 -19.64812 -1.710069 -90.52276 19.63139 18.82926 0 0 -15.67015 16.40828 13.80084 -5.016497
1.120994 104.366 5.837582 0.4974912 -0.07299327 0.3477088 4.259205 -22.20694 7.319336 -0 35.51363 -0 -6.629794 -9.87882 -1.654086 -6.874255 9.72261 -20.05357 -0 7.346122 -0 12.48314 -15.13527 26.32534 -3.322082 -2.469097 4.427368 2.347172 10.44613 -7.41611 1.300493 21.51069 7.055798 3.536503 -24.40253 9.474522 6.185028 -19.38574 11.67888 85.77277 37.99565 -17.6006 -0 0 14.88948 -9.126329 8.947451 5.011724 6.549381 -20.34622 -2.232318 -90.05651 18.59512 18.21958 0 0 -16.55711 16.93943 13.43218 -5.876209
1.519155 104.5568 8.911778 0.2460471 -0.331044 0.5574543 4.370018 -24.00292 5.178588 -0 32.86234 -0 -7.386043 -5.645868 -0.5985997 -6.537331 9.815732 -18.25496 -0 9.045665 -0 11.18231 -15.6913 24.53268 -2.881608 -1.84623 4.051203 2.053359 10.81151 -7.243797 1.14473 21.42059 7.292723 4.026698 -23.95975 9.022161 5.808645 -19.04619 11.76339 86.25411 37.02222 -17.76408 -0 0 13.92173 -11.04585 9.156929 5.618913 7.106849 -21.25149 -2.971408 -89.31233 17.20308 17.21115 0 0 -17.59364 17.67076 13.0594 -7.074264
1.935642 104.6378 12.56067 0.1841568 -0.9231159 0.8001343 4.061204 -25.07771 2.638577 -0 29.9178 -0 -8.229021 -1.708804 0.4789051 -6.288241 9.899881 -16.36708 -0 10.81325 -0 9.913379 -16.05382 22.6655 -2.513151 -1.319004 3.691961 1.670067 11.20791 -7.026229 0.9671285 21.49313 7.502848 4.4935 -23.21255 8.471655 5.267151 -18.68526 11.8399 86.87916 35.62347 -17.98557 -0 0 12.79644 -13.36656 9.37099 6.374024 7.654178 -22.28181 -3.858425 -88.41788 15.66674 15.86262 0 0 -18.75045 18.45691 12.79065 -8.435881
2.361471 104.5971 16.75026 0.2905655 -1.805384 1.048723 3.476422 -25.39916 -0.1147872 -0 26.68288 -0 -9.068777 1.597942 1.465141 -6.117499 10.02514 -14.50546 -0 12.79318 -0 8.683826 -16.20221 20.82064 -2.201399 -0.9382159 3.375914 1.227266 11.59288 -6.787259 0.7919193 21.72877 7.652386 4.898052 -22.20881 7.85721 4.560696 -18.31452 11.88734 87.63414 33.79654 -18.29265 -0 0 11.57926 -15.90036 9.57082 7.180317 8.165504 -23.38256 -4.83191 -87.48904 14.14547 14.26839 0 0 -19.99325 19.18998 12.71148 -9.804224
2.778921 104.4562 21.43125 0.5138975 -2.899687 1.27151 2.817045 -25.00388 -2.838102 -0 23.27884 -0 -9.855455 4.120517 2.252172 -6.000863 10.18695 -12.75972 -0 15.20851 -0 7.50276 -16.10234 19.08902 -1.920177 -0.7399799 3.124647 0.7632246 11.94988 -6.560909 0.6403903 22.09946 7.717783 5.219109 -21.04693 7.215304 3.712113 -17.95977 11.89787 88.50412 31.61095 -18.70766 -0 0 10.33653 -18.46086 9.754115 7.950167 8.603697 -24.50662 -5.827671 -86.63786 12.77783 12.58227 0 0 -21.25776 19.77948 12.88411 -11.01254
3.162241 104.273 26.54516 0.7791389 -4.103578 1.431051 2.297 -23.99962 -5.275436 -0 19.8916 -0 -10.5788 5.865895 2.760635 -5.899996 10.32255 -11.18374 -0 18.33118 -0 6.384489 -15.71374 17.54452 -1.635251 -0.7400414 2.95791 0.3210898 12.29053 -6.386209 0.5299896 22.54903 7.68351 5.448014 -19.8639 6.580408 2.762114 -17.66223 11.87675 89.46636 29.18614 -19.24181 -0 0 9.145187 -20.87348 9.932676 8.611796 8.926936 -25.61426 -6.786635 -85.96113 11.66887 11.00517 0 0 -22.45496 20.15559 13.32793 -11.90414
